<?xml version="1.0" standalone="no"?>
<!DOCTYPE svg PUBLIC "-//W3C//DTD SVG 20010904//EN"
 "http://www.w3.org/TR/2001/REC-SVG-20010904/DTD/svg10.dtd">
<svg version="1.0" xmlns="http://www.w3.org/2000/svg"
 width="345.000000pt" height="345.000000pt" viewBox="0 0 345.000000 345.000000"
 preserveAspectRatio="xMidYMid meet">
<metadata>
Created by potrace 1.14, written by Peter Selinger 2001-2017
</metadata>
<g transform="translate(0.000000,345.000000) scale(0.100000,-0.100000)"
fill="#000000" stroke="none">
<path d="M1099 3146 c-4 -4 -18 -9 -32 -12 -42 -7 -110 -40 -137 -65 -39 -37
-62 -94 -56 -137 6 -44 3 -35 24 -58 17 -20 87 -72 87 -65 0 2 16 -1 36 -7 48
-13 144 -7 197 12 62 22 138 77 125 90 -4 3 -1 6 5 6 12 0 24 31 28 70 6 56
-62 141 -114 145 -10 0 -23 5 -30 9 -17 11 -125 20 -133 12z"/>
<path d="M1689 3116 c-2 -3 -9 -45 -13 -76 -2 -19 -5 -35 -6 -35 -8 0 -6 -86
2 -91 9 -6 87 -14 176 -17 17 -1 32 -4 32 -7 0 -3 12 -7 28 -8 15 -1 56 -11
91 -22 35 -10 68 -17 73 -14 4 3 8 0 8 -5 0 -6 7 -11 16 -11 17 0 66 -20 125
-51 20 -10 39 -16 43 -12 3 3 6 0 6 -7 0 -7 3 -11 6 -7 6 6 125 -60 136 -77 5
-7 8 -7 8 -1 0 6 3 6 8 -1 4 -6 28 -25 54 -42 46 -32 206 -182 193 -182 -3 0
4 -11 17 -25 34 -36 44 -49 58 -76 7 -13 16 -26 19 -29 20 -16 97 -218 107
-280 1 -8 5 -31 8 -50 12 -68 8 -226 -7 -290 -10 -41 -20 -76 -26 -85 -3 -5
-7 -18 -8 -27 -5 -32 -57 -133 -107 -208 -50 -75 -232 -264 -246 -255 -4 3
-11 -2 -14 -11 -3 -8 -10 -12 -16 -9 -5 3 -10 2 -10 -2 0 -10 -91 -71 -111
-75 -8 -2 -16 -5 -19 -8 -5 -5 -80 -42 -90 -45 -3 -1 -22 -9 -44 -18 -21 -9
-44 -17 -51 -17 -6 0 -15 -3 -19 -7 -3 -4 -13 -8 -21 -10 -27 -5 -50 -11 -52
-13 -2 -2 -11 -3 -20 -4 -10 -1 -31 -5 -48 -9 -156 -37 -476 -43 -615 -12 -24
6 -42 9 -92 19 -13 3 -39 10 -58 16 -19 6 -42 13 -50 15 -28 7 -144 57 -212
91 -37 19 -71 34 -74 33 -4 0 -10 3 -13 8 -3 5 -26 23 -51 40 -49 34 -87 65
-159 130 -25 24 -49 43 -53 43 -5 0 -8 5 -8 11 0 6 -12 26 -28 44 -55 66 -72
90 -72 103 0 6 -4 12 -10 12 -5 0 -10 7 -10 15 0 8 -4 15 -10 15 -5 0 -10 5
-10 11 0 5 -12 36 -26 67 -14 31 -28 64 -29 72 -2 8 -8 30 -14 48 -5 18 -10
35 -10 37 -1 3 -1 6 -2 8 -11 26 -15 264 -6 321 7 39 33 138 44 166 3 8 7 17
8 20 32 84 49 116 100 181 37 48 129 144 189 197 24 21 37 50 17 38 -5 -3 -11
0 -14 7 -3 7 -24 26 -48 42 -24 17 -50 35 -57 42 -6 6 -21 15 -32 18 -11 3
-20 11 -20 16 0 17 -37 -9 -109 -79 -39 -37 -71 -66 -71 -64 0 2 -16 -16 -36
-40 -20 -23 -40 -44 -45 -46 -5 -2 -9 -8 -9 -13 0 -5 -8 -17 -17 -27 -10 -10
-25 -29 -33 -42 -8 -12 -23 -33 -32 -45 -10 -13 -18 -28 -18 -34 0 -6 -4 -11
-8 -11 -8 0 -29 -39 -71 -130 -32 -71 -60 -160 -78 -250 -9 -46 -17 -155 -16
-220 2 -128 10 -175 57 -350 8 -28 46 -121 63 -153 10 -18 17 -34 18 -37 0 -3
8 -16 16 -30 9 -14 31 -50 50 -80 18 -30 42 -63 53 -73 10 -9 16 -17 12 -17
-24 0 176 -196 279 -272 6 -4 24 -18 40 -31 45 -34 114 -79 150 -96 11 -5 52
-27 90 -48 39 -21 74 -39 78 -40 4 0 31 -10 60 -21 59 -23 90 -34 97 -37 3 -1
12 -4 20 -8 8 -3 35 -11 60 -18 64 -18 73 -20 95 -24 11 -2 31 -7 45 -10 14
-3 34 -8 45 -10 11 -2 33 -6 49 -10 65 -14 131 -18 326 -19 187 -1 261 3 345
21 17 3 40 6 53 6 12 1 22 3 22 6 0 4 10 7 23 8 23 2 62 10 62 13 0 1 8 4 45
13 8 2 32 7 53 12 20 4 37 11 37 16 0 5 3 8 8 8 4 -1 9 0 12 1 3 1 13 3 23 5
10 2 26 7 35 11 9 4 19 8 22 9 3 1 23 9 45 18 22 10 44 17 49 16 5 0 12 3 15
8 3 4 24 17 46 28 22 10 52 28 68 38 15 10 27 16 27 12 0 -3 10 3 22 15 12 11
28 20 35 20 7 0 13 4 13 8 0 5 17 18 38 30 57 33 275 236 264 247 -3 3 0 5 6
5 6 0 14 9 17 20 4 11 11 18 16 15 5 -4 9 1 9 9 0 9 5 16 10 16 6 0 10 7 10
15 0 8 5 15 10 15 6 0 10 7 10 15 0 8 5 15 10 15 6 0 10 7 10 15 0 8 4 15 8
15 5 0 14 16 22 35 8 19 17 35 22 35 4 0 7 3 6 8 -1 4 8 30 21 57 37 83 39 89
47 115 5 14 9 28 10 33 1 4 2 8 4 10 1 1 3 9 5 17 1 8 8 33 14 55 6 22 13 62
15 88 3 26 8 52 11 57 3 6 1 10 -5 10 -6 0 -8 5 -4 12 8 13 12 148 4 148 -3 0
-5 17 -6 38 -1 45 -10 101 -23 135 -5 14 -7 28 -4 31 3 3 0 12 -7 21 -7 8 -10
15 -6 15 26 0 -143 345 -176 358 -4 2 -8 8 -8 14 0 5 -6 16 -12 23 -7 8 -24
29 -38 46 -14 17 -40 47 -57 67 -18 19 -33 39 -33 45 0 6 -3 8 -6 5 -3 -4 -25
13 -48 35 -70 68 -115 106 -159 135 -23 15 -44 29 -47 32 -10 10 -46 31 -72
43 -16 6 -28 14 -28 18 0 3 -18 14 -40 24 -22 10 -40 22 -40 27 0 4 -7 8 -15
8 -9 0 -42 13 -75 30 -32 16 -94 41 -137 55 -43 14 -85 29 -93 32 -8 3 -19 7
-25 8 -5 1 -12 3 -15 4 -5 2 -14 5 -55 15 -11 2 -42 10 -70 16 -27 7 -61 14
-75 15 -14 2 -25 4 -25 5 0 7 -271 33 -276 26z"/>
<path d="M1447 2754 c-2 -2 -21 -6 -42 -8 -22 -3 -51 -8 -65 -11 -14 -3 -34
-7 -45 -9 -44 -9 -149 -47 -211 -76 -182 -84 -327 -216 -412 -375 -21 -38 -46
-100 -41 -100 1 0 -3 -11 -11 -24 -7 -14 -14 -41 -15 -61 -1 -21 -4 -41 -7
-46 -5 -10 -1 -131 5 -179 9 -62 28 -128 52 -176 14 -27 25 -52 24 -55 0 -4 3
-10 8 -13 5 -3 19 -22 31 -41 11 -19 33 -47 47 -62 14 -16 23 -28 20 -28 -3 0
14 -17 37 -37 24 -21 51 -46 62 -55 11 -10 38 -30 60 -45 23 -16 43 -31 44
-35 2 -5 9 -8 15 -8 7 0 25 -7 40 -15 34 -17 54 -8 82 39 59 96 75 126 68 126
-5 0 -3 4 3 8 6 4 24 32 40 62 16 30 33 58 37 61 13 10 15 43 3 54 -6 6 -22
16 -36 23 -47 23 -65 37 -131 103 -36 36 -70 79 -76 95 -36 94 -34 89 -37 169
-1 39 2 76 7 83 5 7 7 15 4 18 -3 3 1 17 8 31 8 15 12 30 9 35 -3 4 0 8 5 8 6
0 11 7 11 15 0 8 4 15 8 15 5 0 15 12 23 27 16 31 57 73 71 73 5 0 7 4 3 9 -3
5 4 12 15 16 11 3 20 11 20 17 0 6 3 8 6 5 4 -4 19 2 33 12 34 23 119 59 157
65 16 3 49 9 74 14 52 10 265 3 265 -8 0 -1 9 -4 20 -6 36 -8 40 -10 63 -22
12 -7 22 -10 22 -8 0 17 153 -83 181 -119 9 -11 27 -31 39 -45 33 -37 69 -113
73 -154 2 -20 6 -38 9 -41 3 -3 4 -22 2 -43 -4 -40 -12 -103 -15 -118 -4 -22
3 -32 26 -38 13 -3 37 -11 52 -17 15 -6 29 -10 31 -10 1 1 15 -5 32 -14 16 -8
37 -17 47 -18 10 -2 25 -7 33 -10 35 -13 158 -56 186 -65 39 -12 48 1 64 89
18 96 14 221 -8 279 -5 14 -10 27 -10 30 -3 24 -53 133 -64 138 -5 2 -8 8 -8
14 0 30 -164 218 -190 218 -6 0 -10 3 -10 8 0 4 -17 18 -38 32 -20 14 -43 31
-50 37 -7 7 -19 13 -27 13 -7 0 -15 3 -17 8 -2 6 -69 41 -88 47 -3 1 -18 7
-35 14 -16 6 -41 16 -55 21 -48 19 -164 48 -172 44 -4 -3 -8 -2 -8 3 0 4 -15
8 -32 7 -18 0 -37 2 -43 5 -10 6 -273 10 -278 5z"/>
<path d="M1807 1784 c-1 -2 -22 -4 -45 -5 -23 -2 -42 -7 -42 -12 0 -4 -4 -5
-10 -2 -5 3 -20 0 -32 -7 -13 -7 -26 -12 -29 -13 -3 0 -25 -15 -48 -34 -41
-34 -89 -103 -96 -138 -2 -10 -4 -20 -5 -23 -6 -14 1 -98 11 -134 31 -119 173
-246 294 -263 146 -20 235 -1 307 67 21 20 40 35 43 32 3 -3 5 2 5 11 0 10 4
17 8 17 7 0 28 48 40 90 11 39 3 129 -14 166 -34 74 -130 184 -161 184 -7 0
-13 4 -13 9 0 8 -78 39 -120 48 -26 5 -89 10 -93 7z"/>
</g>
</svg>
